HIERARCHY
ROOT RootJoint
{
    OFFSET   0.000000   0.000000   0.000000
    CHANNELS 6 Xposition Yposition Zposition Xrotation Yrotation Zrotation
    JOINT pelvis_lowerback
    {
        OFFSET   0.000000   0.093605   0.000000
        CHANNELS 3 Xrotation Yrotation Zrotation
        JOINT lowerback_torso
        {
            OFFSET   0.000000   0.100000   0.000000
            CHANNELS 3 Xrotation Yrotation Zrotation
            JOINT torso_head
            {
                OFFSET   0.000000   0.282350   0.000000
                CHANNELS 3 Xrotation Yrotation Zrotation
                End Site
                {
                    OFFSET   0.000000   0.192650   0.000000
                }
            }
            JOINT rTorso_Clavicle
            {
                OFFSET  -0.001000   0.157500   0.000000
                CHANNELS 3 Xrotation Yrotation Zrotation
                JOINT rShoulder
                {
                    OFFSET  -0.117647   0.000000   0.000000
                    CHANNELS 3 Xrotation Yrotation Zrotation
                    JOINT rElbow
                    {
                        OFFSET  -0.245000   0.000000   0.000000
                        CHANNELS 3 Xrotation Yrotation Zrotation
                        JOINT rWrist
                        {
                            OFFSET  -0.240000   0.000000   0.000000
                            CHANNELS 3 Xrotation Yrotation Zrotation
                            End Site
                            {
                                OFFSET  -0.116353  -0.002500   0.000000
                            }
                        }
                    }
                }
            }
            JOINT lTorso_Clavicle
            {
                OFFSET   0.001000   0.157500   0.000000
                CHANNELS 3 Xrotation Yrotation Zrotation
                JOINT lShoulder
                {
                    OFFSET   0.117647   0.000000   0.000000
                    CHANNELS 3 Xrotation Yrotation Zrotation
                    JOINT lElbow
                    {
                        OFFSET   0.245000   0.000000   0.000000
                        CHANNELS 3 Xrotation Yrotation Zrotation
                        JOINT lWrist
                        {
                            OFFSET   0.240000   0.000000   0.000000
                            CHANNELS 3 Xrotation Yrotation Zrotation
                            End Site
                            {
                                OFFSET   0.116353  -0.002500   0.000000
                            }
                        }
                    }
                }
            }
        }
    }
    JOINT rHip
    {
        OFFSET  -0.100000  -0.051395   0.000000
        CHANNELS 3 Xrotation Yrotation Zrotation
        JOINT rKnee
        {
            OFFSET   0.000000  -0.410000   0.000000
            CHANNELS 3 Xrotation Yrotation Zrotation
            JOINT rAnkle
            {
                OFFSET   0.000000  -0.390000   0.000000
                CHANNELS 3 Xrotation Yrotation Zrotation
                JOINT rToeJoint
                {
                    OFFSET   0.000000  -0.050000   0.130000
                    CHANNELS 3 Xrotation Yrotation Zrotation
                    End Site
                    {
                        OFFSET  -0.010000   0.002000   0.060000
                    }
                }
            }
        }
    }
    JOINT lHip
    {
        OFFSET   0.100000  -0.051395   0.000000
        CHANNELS 3 Xrotation Yrotation Zrotation
        JOINT lKnee
        {
            OFFSET   0.000000  -0.410000   0.000000
            CHANNELS 3 Xrotation Yrotation Zrotation
            JOINT lAnkle
            {
                OFFSET   0.000000  -0.390000   0.000000
                CHANNELS 3 Xrotation Yrotation Zrotation
                JOINT lToeJoint
                {
                    OFFSET   0.000000  -0.050000   0.130000
                    CHANNELS 3 Xrotation Yrotation Zrotation
                    End Site
                    {
                        OFFSET   0.010000   0.002000   0.060000
                    }
                }
            }
        }
    }
}
MOTION
Frames: 8
Frame Time:   0.008333
 -2.376719   0.925631   3.975860   0.000000   0.000000   0.000000   0.000000   0.000000   0.000000   0.000000   0.000000   0.000000   0.000000   0.000000   0.000000   0.000000   0.000000   0.000000   0.000000   0.000000   0.000000   0.000000   0.000000   0.000000   0.000000   0.000000   0.000000   0.000000   0.000000   0.000000   0.000000   0.000000   0.000000   0.000000   0.000000   0.000000   0.000000   0.000000   0.000000   0.000000   0.000000   0.000000   0.000000   0.000000   0.000000   0.000000   0.000000   0.000000   0.000000   0.000000   0.000000   0.000000   0.000000   0.000000   0.000000   0.000000   0.000000   0.000000   0.000000   0.000000   0.000000   0.000000   0.000000
 -2.375700   0.926262   3.974532   0.275822  -0.635064   0.478802  -0.046799   0.392395  -0.211339  -0.099068   0.100952  -0.270220  -0.002363   0.267155   0.089949   0.182359  -0.441946   0.479710   1.644669   0.662153   1.784145   0.016677   0.833310  -0.014299   0.455020  -0.556739  -2.684221   0.016703   0.470245  -0.658667   0.808000  -0.459096  -1.886509   0.014615  -0.654051   0.005498   0.335168   0.367384   3.205517  -1.791926   0.456387  -0.561568   3.567949   0.002933  -0.006156  -2.045868   0.052286   0.520338  -0.553170   0.002008   0.000688  -0.726724   0.163927  -0.740434   1.675560   0.003814  -0.007049  -1.940480   0.139418   0.359772   0.445556  -0.000328  -0.001289
 -2.374403   0.927228   3.973357   0.409410  -1.298992   1.040236  -0.031719   0.750163  -0.415749  -0.108927   0.212826  -0.600453   0.020751   0.523705   0.185603   0.368134  -0.779300   1.612951   3.242857   1.445704   4.093283   0.039209   1.659036  -0.025252   0.961031  -0.822726  -4.731632   0.047052   0.861916  -2.116392   1.563368  -0.985426  -4.372138   0.034062  -1.301699   0.009648   0.694900   0.506357   5.638025  -3.576274   0.895505  -1.147097   7.437022   0.003666  -0.014659  -3.940407   0.083421   1.007542  -1.069686   0.003449   0.001728  -1.221569   0.301738  -1.664501   3.462798   0.008353  -0.014501  -3.757707   0.251243   0.696335   0.755941  -0.000140  -0.002175
 -2.373092   0.928088   3.972403   0.491281  -1.920875   1.598341  -0.016289   1.063245  -0.608152  -0.102616   0.304816  -0.946251   0.046869   0.762279   0.288158   0.545858  -1.040388   3.151657   4.779930   2.329283   6.748641   0.061575   2.444376  -0.032510   1.455217  -0.946664  -5.998624   0.087733   1.171296  -4.073380   2.238823  -1.553883  -7.131435   0.053055  -1.923393   0.012207   1.047642   0.513018   7.091954  -5.320038   1.318166  -1.647682  11.313525   0.001341  -0.021546  -5.706014   0.097081   1.462406  -1.534607   0.004520   0.002591  -1.562362   0.430555  -2.635979   5.198368   0.012220  -0.020147  -5.452297   0.342804   1.010926   1.036407   0.000172  -0.002764
 -2.371865   0.928543   3.971679   0.559196  -2.474838   2.131411  -0.020092   1.330677  -0.797758  -0.107686   0.369292  -1.296273   0.068747   0.984255   0.391396   0.717816  -1.257009   4.923703   6.254395   3.303629   9.636099   0.080947   3.185030  -0.036841   1.933618  -0.989339  -6.669164   0.137605   1.420040  -6.304379   2.836934  -2.149210  -9.999555   0.069205  -2.515785   0.013533   1.392432   0.432023   7.820416  -6.987675   1.722570  -2.046100  14.999032  -0.002947  -0.025169  -7.352853   0.097027   1.886806  -1.961252   0.005342   0.003158  -1.799888   0.552543  -3.610438   6.851548   0.015178  -0.023716  -7.034075   0.418570   1.304967   1.288892   0.000491  -0.003047
 -2.370759   0.928381   3.971153   0.626548  -2.963865   2.634032  -0.044202   1.559590  -0.989065  -0.130100   0.409302  -1.647041   0.084831   1.191107   0.490441   0.885872  -1.447967   6.809933   7.664424   4.361633  12.675012   0.096161   3.880043  -0.039032   2.394062  -0.985217  -6.927834   0.195189   1.627011  -8.661974   3.362368  -2.755618 -12.872435   0.081527  -3.076550   0.013995   1.727246   0.296431   8.060679  -8.576048   2.106573  -2.347925  18.440424  -0.007920  -0.025914  -8.890655   0.086085   2.282626  -2.359370   0.005967   0.003476  -1.960529   0.668196  -4.569620   8.417044   0.017290  -0.025615  -8.510823   0.481497   1.579811   1.516263   0.000772  -0.003109
 -2.369785   0.927453   3.970787   0.695399  -3.396012   3.106091  -0.083335   1.756216  -1.183345  -0.166801   0.429337  -1.996477   0.095813   1.384007   0.582669   1.051254  -1.623351   8.728819   9.007877   5.497725  15.809195   0.107035   4.530193  -0.039732   2.835074  -0.955862  -6.916786   0.259252   1.804805 -11.049671   3.820996  -3.360811 -15.685314   0.089884  -3.604784   0.013892   2.049745   0.129749   7.986444 -10.091561   2.468276  -2.565235  21.646554  -0.012716  -0.024626 -10.327251   0.066386   2.651615  -2.732284   0.006412   0.003606  -2.058471   0.776752  -5.505150   9.896579   0.018682  -0.026294  -9.889466   0.533672   1.836665   1.721639   0.000998  -0.003027
 -2.369279   0.925080   3.970453   0.554644  -3.941262   3.347936   0.100503   1.983833  -1.272108  -0.171321   0.468789  -2.239494   0.069576   1.451690   0.639919   1.370993  -1.495890  10.087769  10.320567   6.705269  18.759644   0.115042   5.259237  -0.043316   3.151772  -0.996294  -5.854099   0.337495   1.838712 -12.657534   3.982666  -3.952435 -18.447064   0.098400  -4.279241   0.014005   2.174354   0.141805   6.912650 -11.491379   2.668715  -2.475936  24.952076  -0.020920  -0.028829 -10.096174   0.101168   2.866576  -2.886963   0.005716   0.003574  -1.519860   0.883912  -6.135321  10.252709   0.015796  -0.022555 -10.654334   0.306414   1.979974   2.011885   0.001354  -0.004033
